<?xml version="1.0" standalone="no"?>
<!DOCTYPE svg PUBLIC "-//W3C//DTD SVG 20010904//EN"
 "http://www.w3.org/TR/2001/REC-SVG-20010904/DTD/svg10.dtd">
<svg version="1.0" xmlns="http://www.w3.org/2000/svg"
 width="1170.000000pt" height="1170.000000pt" viewBox="0 0 1170.000000 1170.000000"
 preserveAspectRatio="xMidYMid meet">

<g transform="translate(0.000000,1170.000000) scale(0.100000,-0.100000)"
fill="#f16233" stroke="none">
<path d="M6118 11350 c-14 -10 -41 -50 -60 -87 -203 -390 -330 -1542 -356
-3235 -4 -246 -10 -450 -14 -453 -3 -4 -731 464 -1618 1040 -886 575 -1618
1049 -1627 1052 -13 5 -15 1 -9 -32 62 -328 1036 -1141 2690 -2247 197 -132
354 -243 350 -247 -23 -21 -1731 -1124 -1744 -1127 -9 -2 -36 26 -70 74 -145
204 -386 460 -532 562 -88 62 -184 112 -257 134 -60 18 -176 22 -186 6 -3 -5
144 -239 326 -520 182 -281 328 -515 323 -519 -5 -4 -292 -191 -639 -416 -346
-224 -637 -414 -645 -421 -25 -24 5 -38 83 -42 184 -9 668 180 1242 485 l169
90 76 -116 c41 -64 206 -317 365 -563 160 -246 293 -448 297 -448 11 0 40 60
54 115 19 68 17 225 -2 326 -41 217 -154 494 -322 787 l-69 121 126 72 c335
192 1142 685 1536 938 l80 51 6 -57 c4 -32 7 -182 8 -333 2 -417 24 -1155 47
-1591 l7 -116 -124 -7 c-528 -29 -913 -138 -1096 -310 -36 -33 -73 -77 -84
-98 l-19 -38 675 0 675 0 4 -23 c3 -12 8 -60 11 -107 21 -299 90 -793 140
-1007 60 -254 138 -423 196 -423 19 0 19 19 19 780 l0 780 615 0 c518 0 615 2
615 14 0 27 -66 111 -125 159 -182 147 -525 239 -1007 272 l-98 7 0 1039 c0
571 3 1039 6 1039 3 0 108 -64 232 -143 432 -273 955 -591 1385 -841 53 -32
97 -59 97 -60 0 -2 -25 -46 -56 -97 -79 -133 -205 -394 -252 -524 -81 -222
-113 -406 -95 -542 11 -83 49 -186 66 -180 6 2 174 256 374 564 l364 561 102
-55 c161 -88 561 -283 687 -337 288 -123 457 -176 585 -183 78 -5 93 -3 114
14 l23 19 -647 419 c-356 231 -649 425 -652 431 -2 7 144 241 326 520 185 286
326 513 321 518 -18 18 -173 0 -244 -29 -216 -88 -502 -355 -742 -690 -25 -36
-50 -65 -54 -65 -5 0 -370 235 -812 522 -442 287 -836 542 -875 568 l-73 47
268 178 c1592 1060 2583 1864 2756 2235 23 49 35 110 21 110 -3 0 -706 -455
-1563 -1012 -856 -556 -1580 -1026 -1608 -1044 l-51 -33 5 1895 c3 1269 2
1894 -5 1894 -6 0 -22 -9 -35 -20z"/>
<path d="M6902 2438 c-6 -15 -36 -89 -67 -165 -31 -76 -58 -139 -60 -141 -1
-2 -33 69 -71 158 -37 88 -70 157 -74 153 -4 -4 -22 -88 -41 -186 -31 -168
-49 -217 -78 -217 -19 0 -43 45 -117 222 -43 103 -81 184 -85 180 -3 -4 -34
-77 -69 -162 -81 -199 -95 -227 -120 -235 -39 -12 -19 -25 39 -25 60 0 89 13
51 23 -24 6 -25 30 -2 77 17 34 19 35 84 38 l67 3 21 -40 c24 -48 25 -70 5
-77 -41 -16 -3 -24 109 -24 115 0 165 10 116 23 -13 3 -20 14 -20 28 0 36 33
209 39 209 4 0 31 -57 60 -127 30 -71 57 -132 61 -136 4 -5 33 55 65 133 34
83 61 136 65 128 4 -7 15 -60 25 -117 l19 -103 -25 -19 -24 -19 83 0 c83 0
101 8 58 28 -22 10 -27 28 -63 214 -35 178 -41 200 -51 176z m-558 -235 c7
-22 5 -23 -48 -23 -31 0 -56 4 -56 9 0 5 7 26 16 47 9 22 21 50 26 64 10 24
11 24 33 -25 12 -27 25 -60 29 -72z"/>
<path d="M5865 2427 c-56 -22 -84 -48 -110 -100 -49 -100 -21 -223 67 -283 35
-25 51 -29 102 -28 40 0 77 8 109 23 l47 22 0 60 c0 52 3 62 20 66 45 12 15
23 -60 23 -44 0 -80 -4 -80 -9 0 -5 10 -11 23 -13 20 -3 22 -10 25 -63 4 -68
-9 -85 -65 -85 -41 0 -99 49 -124 105 -26 55 -25 147 1 201 20 41 66 74 105
74 41 0 101 -49 110 -91 10 -46 26 -33 23 18 -3 41 -7 49 -35 65 -40 24 -119
31 -158 15z"/>
<path d="M7825 2427 c-56 -22 -84 -48 -110 -100 -49 -100 -21 -223 67 -283 35
-25 51 -29 102 -28 40 0 77 8 109 23 l47 22 0 60 c0 52 3 62 20 66 45 12 15
23 -60 23 -44 0 -80 -4 -80 -9 0 -5 10 -11 23 -13 20 -3 22 -10 25 -63 4 -68
-9 -85 -65 -85 -41 0 -99 49 -124 105 -26 55 -25 147 1 201 20 41 66 74 105
74 41 0 101 -49 110 -91 10 -46 26 -33 23 18 -3 41 -7 49 -35 65 -40 24 -119
31 -158 15z"/>
<path d="M3750 2380 c0 -39 3 -48 14 -44 8 3 16 15 18 27 4 30 52 56 75 41 16
-10 18 -30 18 -185 0 -173 0 -174 -22 -177 -13 -2 -23 -8 -23 -13 0 -5 36 -9
80 -9 81 0 98 7 58 25 -23 10 -23 13 -23 179 0 148 2 170 17 180 28 17 72 -4
76 -37 6 -48 32 -33 32 18 l0 45 -160 0 -160 0 0 -50z"/>
<path d="M4080 2421 c0 -5 11 -12 25 -15 l25 -6 0 -175 0 -175 -25 -10 c-14
-5 -25 -12 -25 -15 0 -3 36 -5 80 -5 75 0 105 11 60 23 -18 5 -20 14 -20 86
l0 81 85 0 85 0 0 -80 c0 -77 -1 -81 -25 -90 -14 -5 -25 -12 -25 -15 0 -3 36
-5 80 -5 75 0 105 11 60 23 -19 5 -20 14 -20 182 0 168 1 177 20 182 44 11 16
23 -54 23 -70 0 -113 -15 -64 -22 22 -3 23 -7 23 -88 l0 -85 -82 -3 -83 -3 0
87 c0 77 2 86 20 91 45 12 15 23 -60 23 -44 0 -80 -4 -80 -9z"/>
<path d="M4520 2423 c0 -4 10 -13 23 -18 22 -10 22 -13 22 -185 0 -174 0 -175
-22 -178 -13 -2 -23 -8 -23 -13 0 -5 36 -9 80 -9 47 0 80 4 80 10 0 6 -7 10
-15 10 -22 0 -35 34 -35 95 0 40 4 57 15 61 27 11 66 -26 92 -84 35 -80 48
-92 99 -92 24 0 46 5 49 10 3 6 0 10 -8 10 -21 0 -51 38 -85 106 -31 61 -31
62 -12 79 26 23 43 79 35 114 -3 15 -20 41 -36 57 -29 28 -34 29 -145 32 -63
2 -114 0 -114 -5z m200 -38 c26 -27 39 -118 21 -144 -5 -8 -32 -17 -60 -21
l-51 -6 0 91 c0 50 3 95 7 98 15 16 61 6 83 -18z"/>
<path d="M4910 2422 c0 -4 10 -12 23 -17 22 -10 22 -13 22 -185 0 -174 0 -175
-22 -178 -13 -2 -23 -8 -23 -13 0 -5 62 -9 145 -9 l145 0 0 35 c0 19 0 38 1
42 2 20 -19 11 -25 -10 -7 -29 -44 -47 -94 -47 -54 0 -62 13 -62 97 l0 73 44
0 c56 0 76 -8 76 -29 0 -14 2 -14 10 -1 5 8 10 30 10 48 0 32 0 32 -24 17 -15
-10 -40 -15 -68 -13 l-43 3 0 85 0 85 47 -1 c51 0 78 -16 78 -45 0 -11 4 -19
9 -19 12 0 21 26 21 61 l0 29 -135 0 c-74 0 -135 -3 -135 -8z"/>
<path d="M5240 2422 c0 -4 10 -12 23 -17 22 -10 22 -13 22 -185 0 -174 0 -175
-22 -178 -13 -2 -23 -8 -23 -13 0 -5 62 -9 145 -9 l145 0 0 35 c0 19 0 38 1
42 2 20 -19 11 -25 -10 -7 -29 -44 -47 -94 -47 -54 0 -62 13 -62 97 l0 73 44
0 c56 0 76 -8 76 -29 0 -14 2 -14 10 -1 5 8 10 30 10 48 0 32 0 32 -24 17 -15
-10 -40 -15 -68 -13 l-43 3 0 85 0 85 47 -1 c51 0 78 -16 78 -45 0 -11 4 -19
9 -19 12 0 21 26 21 61 l0 29 -135 0 c-74 0 -135 -3 -135 -8z"/>
<path d="M7060 2421 c0 -5 11 -12 25 -15 l25 -6 0 -175 0 -175 -25 -10 c-14
-5 -25 -12 -25 -15 0 -3 36 -5 80 -5 47 0 80 4 80 10 0 6 -7 10 -15 10 -28 0
-35 39 -35 185 0 146 7 185 35 185 8 0 15 5 15 10 0 6 -33 10 -80 10 -44 0
-80 -4 -80 -9z"/>
<path d="M7260 2424 c0 -3 14 -19 30 -34 l30 -28 0 -135 c0 -140 -9 -187 -34
-187 -8 0 -18 -4 -21 -10 -4 -6 20 -10 64 -10 70 0 94 12 47 24 -21 5 -24 12
-29 88 -9 111 -9 188 1 187 4 0 63 -70 132 -154 69 -85 128 -154 133 -154 4
-1 7 84 7 188 l0 189 28 21 27 20 -67 1 c-37 0 -70 -4 -73 -10 -3 -5 3 -10 14
-10 33 0 41 -32 41 -156 l0 -116 -121 146 -120 146 -45 0 c-24 0 -44 -3 -44
-6z"/>
<path d="M2871 1778 c-12 -29 -74 -181 -138 -338 -64 -157 -119 -288 -122
-292 -4 -5 -72 145 -151 332 -79 187 -146 340 -149 340 -4 0 -41 -176 -83
-392 -53 -271 -83 -400 -96 -418 -10 -14 -35 -33 -55 -43 -23 -12 -37 -26 -37
-38 0 -18 9 -19 129 -19 l129 0 4 25 c5 22 2 25 -23 25 -15 0 -35 7 -44 17
-21 20 -18 44 34 308 l37 190 108 -255 c59 -140 117 -277 128 -303 12 -26 24
-44 28 -40 4 4 60 140 126 301 65 160 121 292 124 292 5 0 91 -445 90 -470 0
-23 -20 -40 -46 -40 -15 0 -23 -7 -26 -25 l-5 -25 161 2 c158 3 161 3 164 26
3 18 -1 22 -23 22 -30 0 -72 38 -79 72 -3 12 -40 196 -82 408 -41 211 -77 386
-78 388 -2 1 -13 -21 -25 -50z"/>
<path d="M4297 1746 c-124 -46 -182 -146 -156 -268 19 -86 90 -149 247 -217
121 -52 179 -93 190 -134 21 -80 -29 -150 -116 -162 -117 -16 -222 59 -253
179 -8 34 -16 46 -26 42 -8 -3 -19 -6 -24 -6 -5 0 -9 -38 -9 -84 l0 -84 42
-36 c83 -71 211 -95 328 -60 103 31 160 89 175 180 18 114 -48 202 -211 279
-156 73 -165 78 -200 111 -31 28 -34 37 -34 88 0 67 23 97 88 117 116 34 249
-54 268 -178 5 -33 10 -43 21 -39 8 3 21 6 29 6 11 0 14 18 14 84 0 83 -1 85
-32 112 -61 51 -135 78 -223 81 -51 2 -94 -2 -118 -11z"/>
<path d="M9317 1746 c-124 -46 -182 -146 -156 -268 19 -86 90 -149 247 -217
121 -52 179 -93 190 -134 21 -80 -29 -150 -116 -162 -117 -16 -222 59 -253
179 -8 34 -16 46 -26 42 -8 -3 -19 -6 -24 -6 -5 0 -9 -38 -9 -84 l0 -84 42
-36 c83 -71 211 -95 328 -60 103 31 160 89 175 180 18 114 -48 202 -211 279
-156 73 -165 78 -200 111 -31 28 -34 37 -34 88 0 67 23 97 88 117 116 34 249
-54 268 -178 5 -33 10 -43 21 -39 8 3 21 6 29 6 11 0 14 18 14 84 0 83 -1 85
-32 112 -61 51 -135 78 -223 81 -51 2 -94 -2 -118 -11z"/>
<path d="M3190 1741 c0 -5 -3 -16 -6 -25 -5 -13 1 -16 27 -16 65 0 64 6 69
-277 l5 -259 33 -66 c40 -82 111 -149 190 -178 46 -18 72 -21 138 -18 138 7
227 66 281 185 34 74 43 148 43 376 0 184 1 198 20 217 11 11 31 20 44 20 17
0 25 7 28 25 l5 25 -137 0 -138 0 -4 -25 c-5 -23 -2 -25 33 -25 41 0 66 -18
75 -55 3 -12 4 -126 2 -251 -3 -215 -5 -232 -27 -281 -38 -85 -118 -143 -196
-143 -82 0 -175 73 -221 172 -29 63 -29 64 -32 289 -4 260 -2 269 58 269 22 0
40 4 40 9 0 5 3 16 6 25 5 14 -13 16 -165 16 -97 0 -171 -4 -171 -9z"/>
<path d="M4797 1743 c-4 -3 -7 -15 -7 -25 0 -14 8 -18 34 -18 65 0 66 -4 66
-373 0 -207 -4 -335 -10 -348 -8 -13 -21 -19 -45 -19 -19 0 -35 -4 -35 -9 0
-5 -3 -16 -6 -25 -5 -14 13 -16 160 -16 94 0 166 4 166 9 0 5 3 16 6 25 5 13
-1 16 -28 16 -63 0 -69 17 -66 186 l3 148 38 -34 c22 -19 81 -98 132 -176 51
-78 106 -151 122 -164 26 -21 34 -22 118 -16 49 4 90 8 91 9 1 1 5 12 8 25 6
19 4 22 -18 22 -41 0 -97 60 -206 220 -56 82 -116 162 -135 178 l-33 29 70 79
c164 184 221 234 268 234 11 0 20 4 20 9 0 5 3 16 6 25 5 14 -9 16 -119 16
-105 0 -126 -3 -131 -16 -10 -26 -7 -32 16 -36 12 -2 23 -8 25 -14 6 -17 -51
-95 -165 -225 l-107 -124 -3 169 c-2 116 1 173 9 182 6 8 26 14 44 14 27 0 34
4 37 25 l5 25 -162 0 c-89 0 -165 -3 -168 -7z"/>
<path d="M5606 1734 c-11 -29 -6 -34 28 -34 65 0 66 -4 66 -373 0 -207 -4
-335 -10 -348 -8 -13 -21 -19 -45 -19 -19 0 -35 -4 -35 -9 0 -5 -3 -16 -6 -25
-6 -14 24 -16 293 -16 l300 0 11 88 c5 48 9 88 9 89 -1 1 -14 4 -28 8 -24 6
-27 3 -37 -37 -6 -25 -20 -52 -31 -62 -20 -19 -114 -35 -198 -36 -81 0 -83 4
-83 192 l0 161 93 -5 c106 -6 137 -18 137 -53 0 -27 10 -37 27 -27 8 6 33 142
33 184 0 16 -21 7 -44 -19 -22 -25 -29 -27 -134 -31 l-112 -5 0 172 0 171 53
-1 c154 -2 197 -25 197 -104 0 -42 1 -43 28 -36 25 7 28 13 39 82 6 41 12 82
12 92 1 16 -19 17 -278 17 -245 0 -280 -2 -285 -16z"/>
<path d="M6280 1650 c0 -55 2 -100 4 -100 3 0 16 4 30 10 21 8 26 16 26 45 0
54 33 81 109 90 43 5 66 3 76 -5 13 -11 15 -66 15 -360 0 -376 2 -365 -55
-372 -22 -2 -31 -9 -33 -25 l-3 -23 165 0 166 0 0 25 c0 21 -5 25 -29 25 -65
0 -61 -22 -61 364 0 260 3 355 12 364 15 15 85 16 128 1 35 -13 60 -57 60
-108 0 -27 2 -29 28 -22 27 7 27 8 30 99 l3 92 -336 0 -335 0 0 -100z"/>
<path d="M6976 1734 c-11 -29 -6 -34 28 -34 65 0 66 -4 66 -373 0 -207 -4
-335 -10 -348 -8 -13 -21 -19 -45 -19 -19 0 -35 -4 -35 -9 0 -5 -3 -16 -6 -25
-6 -14 24 -16 293 -16 l300 0 11 88 c5 48 9 88 9 89 -1 1 -14 4 -28 8 -24 6
-27 3 -37 -37 -6 -25 -20 -52 -31 -62 -20 -19 -114 -35 -198 -36 -81 0 -83 4
-83 192 l0 161 93 -5 c106 -6 137 -18 137 -53 0 -27 10 -37 27 -27 8 6 33 142
33 184 0 16 -21 7 -44 -19 -22 -25 -29 -27 -134 -31 l-112 -5 0 172 0 171 53
-1 c154 -2 197 -25 197 -104 0 -42 1 -43 28 -36 25 7 28 13 39 82 6 41 12 82
12 92 1 16 -19 17 -278 17 -245 0 -280 -2 -285 -16z"/>
<path d="M7666 1734 c-11 -29 -6 -34 28 -34 65 0 66 -4 66 -373 0 -207 -4
-335 -10 -348 -8 -13 -21 -19 -45 -19 -19 0 -35 -4 -35 -9 0 -5 -3 -16 -6 -25
-6 -14 24 -16 293 -16 l300 0 11 88 c5 48 9 88 9 89 -1 1 -14 4 -28 8 -24 6
-27 3 -37 -37 -6 -25 -20 -52 -31 -62 -20 -19 -114 -35 -198 -36 -81 0 -83 4
-83 192 l0 161 93 -5 c106 -6 137 -18 137 -53 0 -27 10 -37 27 -27 8 6 33 142
33 184 0 16 -21 7 -44 -19 -22 -25 -29 -27 -134 -31 l-112 -5 0 172 0 171 53
-1 c154 -2 197 -25 197 -104 0 -42 1 -43 28 -36 25 7 28 13 39 82 6 41 12 82
12 92 1 16 -19 17 -278 17 -245 0 -280 -2 -285 -16z"/>
<path d="M8356 1735 c-11 -30 -7 -35 28 -35 65 0 66 -3 66 -380 0 -248 -3
-339 -12 -348 -7 -7 -27 -12 -45 -12 -18 0 -33 -4 -33 -9 0 -5 -3 -16 -6 -25
-5 -14 13 -16 159 -16 141 0 166 2 171 16 11 28 6 34 -28 34 -61 0 -66 14 -66
172 l0 141 42 -7 c82 -13 97 -29 174 -185 39 -79 79 -150 89 -158 13 -9 50
-13 116 -13 95 0 97 0 101 25 4 21 1 25 -19 25 -54 0 -82 30 -150 165 -36 71
-72 137 -80 147 -13 14 -10 21 30 60 115 115 96 300 -37 383 l-49 30 -222 3
c-198 3 -223 1 -229 -13z m399 -65 c45 -41 67 -97 72 -180 9 -128 -30 -170
-161 -170 -59 0 -65 -2 -69 -22 -2 -13 -5 73 -6 191 l-1 213 70 -4 c56 -3 74
-8 95 -28z"/>
<path d="M2100 756 c0 -61 547 -121 1415 -156 1160 -46 3721 -46 4805 0 792
34 1328 94 1389 155 14 13 -430 15 -3797 15 -3286 0 -3812 -2 -3812 -14z"/>
</g>
</svg>
